# 3ds Max Wavefront OBJ Exporter v0.97b - (c)2007 guruware
# File Created: 09.12.2016 13:52:20

mtllib measure.mtl

#
# object Box001
#

v  -4.056997 -0.157240 3.937008
v  -4.056997 -0.157240 -3.937008
v  3.817019 -0.157240 -3.937008
v  3.817019 -0.157240 3.937008
v  -4.056997 -0.027275 3.937008
v  3.817019 -0.027275 3.937008
v  3.817019 -0.027275 -3.937008
v  -4.056997 -0.027275 -3.937008
# 8 vertices

vn 0.000000 -1.000000 -0.000000
vn 0.000000 1.000000 -0.000000
vn 0.000000 0.000000 1.000000
vn 1.000000 0.000000 -0.000000
vn 0.000000 0.000000 -1.000000
vn -1.000000 0.000000 -0.000000
# 6 vertex normals

vt 0.075000 0.052397 0.000000
vt 0.075000 0.902397 0.000000
vt 0.925000 0.902397 0.000000
vt 0.925000 0.052397 0.000000
vt 0.075000 0.052397 1.000000
vt 0.925000 0.052397 1.000000
vt 0.925000 0.902397 1.000000
vt 0.075000 0.902397 1.000000
# 8 texture coords

g Box001
usemtl Material__2097649787
f 1/1/1 2/2/1 3/3/1 
f 3/3/1 4/4/1 1/1/1 
f 5/5/2 6/6/2 7/7/2 
f 7/7/2 8/8/2 5/5/2 
f 1/1/3 4/4/3 6/6/3 
f 6/6/3 5/5/3 1/1/3 
f 4/4/4 3/3/4 7/7/4 
f 7/7/4 6/6/4 4/4/4 
f 3/3/5 2/2/5 8/8/5 
f 8/8/5 7/7/5 3/3/5 
f 2/2/6 1/1/6 5/5/6 
f 5/5/6 8/8/6 2/2/6 
# 12 faces

#
# object Box002
#

v  -0.122598 3.986247 3.937008
v  -0.122598 3.986247 -3.937008
v  -0.117381 -3.887760 -3.937008
v  -0.117381 -3.887760 3.937008
v  0.050552 3.986840 3.937008
v  0.055768 -3.887167 3.937008
v  0.055768 -3.887167 -3.937008
v  0.050552 3.986840 -3.937008
# 8 vertices

vn -0.999994 -0.003425 -0.000000
vn 0.999994 0.003425 0.000000
vn 0.000000 -0.000000 1.000000
vn 0.000662 -1.000000 0.000000
vn -0.000000 0.000000 -1.000000
vn -0.000662 1.000000 -0.000000
# 6 vertex normals

vt 0.075000 0.052397 0.000000
vt 0.075000 0.902397 0.000000
vt 0.925000 0.902397 0.000000
vt 0.925000 0.052397 0.000000
vt 0.075000 0.052397 1.000000
vt 0.925000 0.052397 1.000000
vt 0.925000 0.902397 1.000000
vt 0.075000 0.902397 1.000000
# 8 texture coords

g Box002
usemtl Material__2097649788
f 9/9/7 10/10/7 11/11/7 
f 11/11/7 12/12/7 9/9/7 
f 13/13/8 14/14/8 15/15/8 
f 15/15/8 16/16/8 13/13/8 
f 9/9/9 12/12/9 14/14/9 
f 14/14/9 13/13/9 9/9/9 
f 12/12/10 11/11/10 15/15/10 
f 15/15/10 14/14/10 12/12/10 
f 11/11/11 10/10/11 16/16/11 
f 16/16/11 15/15/11 11/11/11 
f 10/10/12 9/9/12 13/13/12 
f 13/13/12 16/16/12 10/10/12 
# 12 faces

#
# object Box003
#

v  -4.056997 -3.968604 3.937008
v  -4.056997 -3.968604 -3.937008
v  3.817019 -3.968604 -3.937008
v  3.817019 -3.968604 3.937008
v  -4.056997 -3.838639 3.937008
v  3.817019 -3.838639 3.937008
v  3.817019 -3.838639 -3.937008
v  -4.056997 -3.838639 -3.937008
# 8 vertices

vn 0.000000 -1.000000 -0.000000
vn 0.000000 1.000000 -0.000000
vn 0.000000 0.000000 1.000000
vn 1.000000 0.000000 -0.000000
vn 0.000000 0.000000 -1.000000
vn -1.000000 0.000000 -0.000000
# 6 vertex normals

vt 0.075000 0.052397 0.000000
vt 0.075000 0.902397 0.000000
vt 0.925000 0.902397 0.000000
vt 0.925000 0.052397 0.000000
vt 0.075000 0.052397 1.000000
vt 0.925000 0.052397 1.000000
vt 0.925000 0.902397 1.000000
vt 0.075000 0.902397 1.000000
# 8 texture coords

g Box003
usemtl Material__2097649786
f 17/17/13 18/18/13 19/19/13 
f 19/19/13 20/20/13 17/17/13 
f 21/21/14 22/22/14 23/23/14 
f 23/23/14 24/24/14 21/21/14 
f 17/17/15 20/20/15 22/22/15 
f 22/22/15 21/21/15 17/17/15 
f 20/20/16 19/19/16 23/23/16 
f 23/23/16 22/22/16 20/20/16 
f 19/19/17 18/18/17 24/24/17 
f 24/24/17 23/23/17 19/19/17 
f 18/18/18 17/17/18 21/21/18 
f 21/21/18 24/24/18 18/18/18 
# 12 faces

#
# object Box004
#

v  -4.056997 3.992641 3.937008
v  -4.056997 3.992641 -3.937008
v  3.817019 3.992641 -3.937008
v  3.817019 3.992641 3.937008
v  -4.056997 4.122606 3.937008
v  3.817019 4.122606 3.937008
v  3.817019 4.122606 -3.937008
v  -4.056997 4.122606 -3.937008
# 8 vertices

vn 0.000000 -1.000000 -0.000000
vn 0.000000 1.000000 -0.000000
vn 0.000000 0.000000 1.000000
vn 1.000000 0.000000 -0.000000
vn 0.000000 0.000000 -1.000000
vn -1.000000 0.000000 -0.000000
# 6 vertex normals

vt 0.075000 0.052397 0.000000
vt 0.075000 0.902397 0.000000
vt 0.925000 0.902397 0.000000
vt 0.925000 0.052397 0.000000
vt 0.075000 0.052397 1.000000
vt 0.925000 0.052397 1.000000
vt 0.925000 0.902397 1.000000
vt 0.075000 0.902397 1.000000
# 8 texture coords

g Box004
usemtl Material__2097649784
f 25/25/19 26/26/19 27/27/19 
f 27/27/19 28/28/19 25/25/19 
f 29/29/20 30/30/20 31/31/20 
f 31/31/20 32/32/20 29/29/20 
f 25/25/21 28/28/21 30/30/21 
f 30/30/21 29/29/21 25/25/21 
f 28/28/22 27/27/22 31/31/22 
f 31/31/22 30/30/22 28/28/22 
f 27/27/23 26/26/23 32/32/23 
f 32/32/23 31/31/23 27/27/23 
f 26/26/24 25/25/24 29/29/24 
f 29/29/24 32/32/24 26/26/24 
# 12 faces

